# xmcd CD database file
#
# Track frame offsets:
#	150
#	17485
#	31991
#	50079
#	65492
#	79899
#	95724
#	108858
#	126683
#	143576
#	156680
#	169419
#
# Disc length: 2483 seconds
#
# Revision: 1
# Processed by: cddbd v1.5.2PL0 Copyright (c) Steve Scherf et al.
# Submitted via: CDex 1.51
#
DISCID=ad09b10c
DTITLE=Various Artist - Kids Country 2
DYEAR=2004
DGENRE=Country
TTITLE0=Born to Fly
TTITLE1=Its a Great Day to be Alive
TTITLE2=This Ones for the Girls
TTITLE3=Just Another Day in Paradise
TTITLE4=You'te Still the One
TTITLE5=Days Go By
TTITLE6=XXXs and OOOs
TTITLE7=Wave On Wave
TTITLE8=Perfect
TTITLE9=Hey Good Lookin'
TTITLE10=I Wanna Do It All
TTITLE11=Mayberry
EXTD=YEAR: 2004
EXTT0=
EXTT1=
EXTT2=
EXTT3=
EXTT4=
EXTT5=
EXTT6=
EXTT7=
EXTT8=
EXTT9=
EXTT10=
EXTT11=
PLAYORDER=
